<svg width="14" height="16" viewBox="0 0 14 16" fill="none" xmlns="http://www.w3.org/2000/svg">
<path d="M13.223 3.2C13.4213 3.20023 13.6119 3.2783 13.7561 3.41828C13.9003 3.55825 13.987 3.74956 13.9987 3.95312C14.0103 4.15667 13.9459 4.3571 13.8186 4.51347C13.6914 4.66983 13.5109 4.77032 13.314 4.7944L13.223 4.8H13.16L12.4451 13.6C12.4451 14.2122 12.2177 14.8012 11.8094 15.2466C11.401 15.692 10.8426 15.9601 10.2484 15.996L10.1115 16H3.88851C2.64546 16 1.62956 15.0008 1.56111 13.8L1.55722 13.6664L0.839242 4.8H0.777012C0.578748 4.79977 0.38805 4.7217 0.243882 4.58172C0.0997139 4.44175 0.0129572 4.25044 0.00133797 4.04688C-0.0102812 3.84333 0.0541141 3.6429 0.181367 3.48653C0.308619 3.33017 0.489124 3.22968 0.686001 3.2056L0.777012 3.2H13.223ZM8.55575 0C8.96836 0 9.36407 0.168571 9.65583 0.468629C9.94759 0.768687 10.1115 1.17565 10.1115 1.6C10.1113 1.8039 10.0354 2.00003 9.89925 2.14829C9.76315 2.29656 9.57713 2.38579 9.37921 2.39774C9.18128 2.40969 8.98639 2.34346 8.83436 2.21259C8.68232 2.08172 8.58461 1.89608 8.56119 1.6936L8.55575 1.6H5.44425L5.43881 1.6936C5.41539 1.89608 5.31768 2.08172 5.16564 2.21259C5.01361 2.34346 4.81872 2.40969 4.62079 2.39774C4.42287 2.38579 4.23685 2.29656 4.10075 2.14829C3.96464 2.00003 3.88873 1.8039 3.88851 1.6C3.88838 1.19634 4.03662 0.807547 4.3035 0.511562C4.57038 0.215576 4.93618 0.0342747 5.32757 0.00400009L5.44425 0H8.55575Z" fill="#DCFD92"/>
</svg>
