<svg width="35" height="31" viewBox="0 0 35 31" fill="none" xmlns="http://www.w3.org/2000/svg">
<path fill-rule="evenodd" clip-rule="evenodd" d="M3.76278 14.0816C3.73967 12.657 4.03645 11.2425 4.63588 9.92043C5.23531 8.59832 6.12543 7.39495 7.25448 6.38028C8.38354 5.36561 9.72901 4.55988 11.2127 4.00992C12.6964 3.45996 14.2886 3.17675 15.897 3.17675C17.5053 3.17675 19.0976 3.45996 20.5812 4.00992C22.0649 4.55988 23.4104 5.36561 24.5394 6.38028C25.6685 7.39495 26.5586 8.59832 27.158 9.92043C27.7575 11.2425 28.0542 12.657 28.0311 14.0816C27.9853 16.9058 26.6868 19.6005 24.4161 21.5833C22.1455 23.5661 19.0853 24.6776 15.897 24.6776C12.7086 24.6776 9.6484 23.5661 7.37778 21.5833C5.10716 19.6005 3.80858 16.9058 3.76278 14.0816ZM15.8957 1.59487e-07C13.3881 -0.000334166 10.916 0.524959 8.68147 1.53295C6.44691 2.54094 4.5133 4.00302 3.03866 5.79971C1.56402 7.59639 0.590212 9.67668 0.19681 11.8706C-0.196591 14.0644 0.00158344 16.3097 0.775139 18.4227C1.54869 20.5358 2.87568 22.4567 4.64763 24.0285C6.41959 25.6003 8.58624 26.7783 10.9705 27.4664C13.3548 28.1545 15.889 28.333 18.366 27.9874C20.8431 27.6418 23.1927 26.7818 25.2228 25.4779L30.7218 30.3493C31.1915 30.7657 31.8288 30.9998 32.4934 31C33.1579 31.0002 33.7954 30.7665 34.2655 30.3504C34.7355 29.9343 34.9998 29.3697 35 28.781C35.0002 28.1923 34.7365 27.6276 34.2667 27.2112L28.7652 22.3397C30.4829 20.2385 31.5118 17.7578 31.7385 15.1713C31.9651 12.5847 31.3806 9.99301 30.0495 7.68217C28.7184 5.37133 26.6925 3.43122 24.1953 2.07599C21.6981 0.720755 18.8268 0.003095 15.8982 0.00221949L15.8957 1.59487e-07ZM14.0293 8.93501C14.1747 9.06381 14.2901 9.21674 14.3688 9.38505C14.4475 9.55337 14.488 9.73377 14.488 9.91595C14.488 10.0981 14.4475 10.2785 14.3688 10.4468C14.2901 10.6152 14.1747 10.7681 14.0293 10.8969L10.1261 14.3568L14.0293 17.8145C14.323 18.0747 14.488 18.4275 14.488 18.7955C14.488 19.1634 14.323 19.5163 14.0293 19.7764C13.7356 20.0366 13.3373 20.1827 12.922 20.1827C12.5066 20.1827 12.1083 20.0366 11.8147 19.7764L6.80415 15.3378C6.65871 15.209 6.54334 15.056 6.46462 14.8877C6.38591 14.7194 6.3454 14.539 6.3454 14.3568C6.3454 14.1746 6.38591 13.9942 6.46462 13.8259C6.54334 13.6576 6.65871 13.5047 6.80415 13.3759L11.8147 8.93723C11.9601 8.80839 12.1327 8.70618 12.3227 8.63645C12.5127 8.56672 12.7163 8.53083 12.922 8.53083C13.1276 8.53083 13.3313 8.56672 13.5213 8.63645C13.7113 8.70618 13.8839 8.80617 14.0293 8.93501ZM20.2924 8.93501C19.9987 8.67485 19.6004 8.52869 19.1851 8.52869C18.7698 8.52869 18.3715 8.67485 18.0778 8.93501C17.7841 9.19517 17.6191 9.54802 17.6191 9.91595C17.6191 10.2839 17.7841 10.6367 18.0778 10.8969L21.981 14.3546L18.0778 17.8145C17.7841 18.0747 17.6191 18.4275 17.6191 18.7955C17.6191 19.1634 17.7841 19.5163 18.0778 19.7764C18.3715 20.0366 18.7698 20.1827 19.1851 20.1827C19.6004 20.1827 19.9987 20.0366 20.2924 19.7764L25.3029 15.3378C25.4484 15.209 25.5637 15.056 25.6424 14.8877C25.7212 14.7194 25.7617 14.539 25.7617 14.3568C25.7617 14.1746 25.7212 13.9942 25.6424 13.8259C25.5637 13.6576 25.4484 13.5047 25.3029 13.3759L20.2924 8.93501Z" fill="#00692E"/>
</svg>
