<svg width="216" height="93" viewBox="0 0 216 93" fill="none" xmlns="http://www.w3.org/2000/svg">
<path d="M84.5827 16.351C66.5109 28.6172 69.5533 50.763 57.0774 61.8074C47.6878 70.1198 33.3393 67.3603 24.964 64.727C24.964 64.727 19.9711 71.9385 16.7072 81.2946C15.615 84.4336 9.55285 81.5267 10.3769 78.8769C20.8215 45.3287 63.5357 25.7445 63.5357 25.7445C63.5357 25.7445 32.4293 26.8146 13.7132 54.8447C12.6992 48.8437 10.5384 32.5641 25.826 21.319C46.5499 6.05961 88.8022 13.4903 84.5827 16.351Z" fill="url(#paint0_linear_189_430)"/>
<path d="M24.8864 81H23.4091L27.6818 69.3636H29.1364L33.4091 81H31.9318L28.4545 71.2045H28.3636L24.8864 81ZM25.4318 76.4545H31.3864V77.7045H25.4318V76.4545ZM38.5625 84.4545C37.9148 84.4545 37.358 84.3712 36.892 84.2045C36.4261 84.0417 36.0379 83.8258 35.7273 83.5568C35.4205 83.2917 35.1761 83.0076 34.9943 82.7045L36.0625 81.9545C36.1837 82.1136 36.3371 82.2955 36.5227 82.5C36.7083 82.7083 36.9621 82.8883 37.2841 83.0398C37.6098 83.1951 38.036 83.2727 38.5625 83.2727C39.267 83.2727 39.8485 83.1023 40.3068 82.7614C40.7652 82.4205 40.9943 81.8864 40.9943 81.1591V79.3864H40.8807C40.7822 79.5455 40.642 79.7424 40.4602 79.9773C40.2822 80.2083 40.0246 80.4148 39.6875 80.5966C39.3542 80.7746 38.9034 80.8636 38.3352 80.8636C37.6307 80.8636 36.9981 80.697 36.4375 80.3636C35.8807 80.0303 35.4394 79.5455 35.1136 78.9091C34.7917 78.2727 34.6307 77.5 34.6307 76.5909C34.6307 75.697 34.7879 74.9186 35.1023 74.2557C35.4167 73.589 35.8542 73.0739 36.4148 72.7102C36.9754 72.3428 37.6231 72.1591 38.358 72.1591C38.9261 72.1591 39.3769 72.2538 39.7102 72.4432C40.0473 72.6288 40.3049 72.8409 40.483 73.0795C40.6648 73.3144 40.8049 73.5076 40.9034 73.6591H41.0398V72.2727H42.3352V81.25C42.3352 82 42.1648 82.6098 41.8239 83.0795C41.4867 83.553 41.0322 83.8996 40.4602 84.1193C39.892 84.3428 39.2595 84.4545 38.5625 84.4545ZM38.517 79.6591C39.0549 79.6591 39.5095 79.536 39.8807 79.2898C40.2519 79.0436 40.5341 78.6894 40.7273 78.2273C40.9205 77.7652 41.017 77.2121 41.017 76.5682C41.017 75.9394 40.9223 75.3845 40.733 74.9034C40.5436 74.4223 40.2633 74.0455 39.892 73.7727C39.5208 73.5 39.0625 73.3636 38.517 73.3636C37.9489 73.3636 37.4754 73.5076 37.0966 73.7955C36.7216 74.0833 36.4394 74.4697 36.25 74.9545C36.0644 75.4394 35.9716 75.9773 35.9716 76.5682C35.9716 77.1742 36.0663 77.7102 36.2557 78.1761C36.4489 78.6383 36.733 79.0019 37.108 79.267C37.4867 79.5284 37.9564 79.6591 38.517 79.6591ZM44.7898 81V72.2727H46.0852V73.5909H46.1761C46.3352 73.1591 46.6231 72.8087 47.0398 72.5398C47.4564 72.2708 47.9261 72.1364 48.4489 72.1364C48.5473 72.1364 48.6705 72.1383 48.8182 72.142C48.9659 72.1458 49.0777 72.1515 49.1534 72.1591V73.5227C49.108 73.5114 49.0038 73.4943 48.8409 73.4716C48.6818 73.4451 48.5133 73.4318 48.3352 73.4318C47.911 73.4318 47.5322 73.5208 47.1989 73.6989C46.8693 73.8731 46.608 74.1155 46.4148 74.4261C46.2254 74.733 46.1307 75.0833 46.1307 75.4773V81H44.7898ZM50.7429 81V72.2727H52.0838V81H50.7429ZM51.4247 70.8182C51.1634 70.8182 50.938 70.7292 50.7486 70.5511C50.563 70.3731 50.4702 70.1591 50.4702 69.9091C50.4702 69.6591 50.563 69.4451 50.7486 69.267C50.938 69.089 51.1634 69 51.4247 69C51.6861 69 51.9096 69.089 52.0952 69.267C52.2846 69.4451 52.3793 69.6591 52.3793 69.9091C52.3793 70.1591 52.2846 70.3731 52.0952 70.5511C51.9096 70.7292 51.6861 70.8182 51.4247 70.8182ZM54.7216 81V69.3636H58.6534C59.5663 69.3636 60.3125 69.5284 60.892 69.858C61.4754 70.1837 61.9072 70.625 62.1875 71.1818C62.4678 71.7386 62.608 72.3598 62.608 73.0455C62.608 73.7311 62.4678 74.3542 62.1875 74.9148C61.911 75.4754 61.483 75.9223 60.9034 76.2557C60.3239 76.5852 59.5814 76.75 58.6761 76.75H55.858V75.5H58.6307C59.2557 75.5 59.7576 75.392 60.1364 75.1761C60.5152 74.9602 60.7898 74.6686 60.9602 74.3011C61.1345 73.9299 61.2216 73.5114 61.2216 73.0455C61.2216 72.5795 61.1345 72.1629 60.9602 71.7955C60.7898 71.428 60.5133 71.1402 60.1307 70.9318C59.7481 70.7197 59.2405 70.6136 58.608 70.6136H56.1307V81H54.7216ZM68.2614 81.1818C67.4205 81.1818 66.6951 80.9962 66.0852 80.625C65.4792 80.25 65.0114 79.7273 64.6818 79.0568C64.3561 78.3826 64.1932 77.5985 64.1932 76.7045C64.1932 75.8106 64.3561 75.0227 64.6818 74.3409C65.0114 73.6553 65.4697 73.1212 66.0568 72.7386C66.6477 72.3523 67.3371 72.1591 68.125 72.1591C68.5795 72.1591 69.0284 72.2348 69.4716 72.3864C69.9148 72.5379 70.3182 72.7841 70.6818 73.125C71.0455 73.4621 71.3352 73.9091 71.5511 74.4659C71.767 75.0227 71.875 75.7083 71.875 76.5227V77.0909H65.1477V75.9318H70.5114C70.5114 75.4394 70.4129 75 70.2159 74.6136C70.0227 74.2273 69.7462 73.9223 69.3864 73.6989C69.0303 73.4754 68.6098 73.3636 68.125 73.3636C67.5909 73.3636 67.1288 73.4962 66.7386 73.7614C66.3523 74.0227 66.0549 74.3636 65.8466 74.7841C65.6383 75.2045 65.5341 75.6553 65.5341 76.1364V76.9091C65.5341 77.5682 65.6477 78.1269 65.875 78.5852C66.1061 79.0398 66.4261 79.3864 66.8352 79.625C67.2443 79.8598 67.7197 79.9773 68.2614 79.9773C68.6136 79.9773 68.9318 79.928 69.2159 79.8295C69.5038 79.7273 69.7519 79.5758 69.9602 79.375C70.1686 79.1705 70.3295 78.9167 70.4432 78.6136L71.7386 78.9773C71.6023 79.4167 71.3731 79.803 71.0511 80.1364C70.7292 80.4659 70.3314 80.7235 69.858 80.9091C69.3845 81.0909 68.8523 81.1818 68.2614 81.1818ZM77.2102 81.1818C76.483 81.1818 75.8409 80.9981 75.2841 80.6307C74.7273 80.2595 74.2917 79.7367 73.9773 79.0625C73.6629 78.3845 73.5057 77.5833 73.5057 76.6591C73.5057 75.7424 73.6629 74.947 73.9773 74.2727C74.2917 73.5985 74.7292 73.0777 75.2898 72.7102C75.8504 72.3428 76.4981 72.1591 77.233 72.1591C77.8011 72.1591 78.25 72.2538 78.5795 72.4432C78.9129 72.6288 79.1667 72.8409 79.3409 73.0795C79.5189 73.3144 79.6572 73.5076 79.7557 73.6591H79.8693V69.3636H81.2102V81H79.9148V79.6591H79.7557C79.6572 79.8182 79.517 80.0189 79.3352 80.2614C79.1534 80.5 78.8939 80.714 78.5568 80.9034C78.2197 81.089 77.7708 81.1818 77.2102 81.1818ZM77.392 79.9773C77.9299 79.9773 78.3845 79.8371 78.7557 79.5568C79.1269 79.2727 79.4091 78.8807 79.6023 78.3807C79.7955 77.8769 79.892 77.2955 79.892 76.6364C79.892 75.9848 79.7973 75.4148 79.608 74.9261C79.4186 74.4337 79.1383 74.0511 78.767 73.7784C78.3958 73.5019 77.9375 73.3636 77.392 73.3636C76.8239 73.3636 76.3504 73.5095 75.9716 73.8011C75.5966 74.089 75.3144 74.4811 75.125 74.9773C74.9394 75.4697 74.8466 76.0227 74.8466 76.6364C74.8466 77.2576 74.9413 77.822 75.1307 78.3295C75.3239 78.8333 75.608 79.2348 75.983 79.5341C76.3617 79.8295 76.8314 79.9773 77.392 79.9773ZM83.8523 81V72.2727H85.1932V81H83.8523ZM84.5341 70.8182C84.2727 70.8182 84.0473 70.7292 83.858 70.5511C83.6723 70.3731 83.5795 70.1591 83.5795 69.9091C83.5795 69.6591 83.6723 69.4451 83.858 69.267C84.0473 69.089 84.2727 69 84.5341 69C84.7955 69 85.0189 69.089 85.2045 69.267C85.3939 69.4451 85.4886 69.6591 85.4886 69.9091C85.4886 70.1591 85.3939 70.3731 85.2045 70.5511C85.0189 70.7292 84.7955 70.8182 84.5341 70.8182ZM90.2173 81.2045C89.6643 81.2045 89.1624 81.1004 88.7116 80.892C88.2609 80.6799 87.9029 80.375 87.6378 79.9773C87.3726 79.5758 87.2401 79.0909 87.2401 78.5227C87.2401 78.0227 87.3385 77.6174 87.5355 77.3068C87.7325 76.9924 87.9957 76.7462 88.3253 76.5682C88.6548 76.3902 89.0185 76.2576 89.4162 76.1705C89.8177 76.0795 90.2211 76.0076 90.6264 75.9545C91.1567 75.8864 91.5866 75.8352 91.9162 75.8011C92.2495 75.7633 92.492 75.7008 92.6435 75.6136C92.7988 75.5265 92.8764 75.375 92.8764 75.1591V75.1136C92.8764 74.553 92.723 74.1174 92.4162 73.8068C92.1132 73.4962 91.6529 73.3409 91.0355 73.3409C90.3954 73.3409 89.8935 73.4811 89.5298 73.7614C89.1662 74.0417 88.9105 74.3409 88.7628 74.6591L87.4901 74.2045C87.7173 73.6742 88.0204 73.2614 88.3991 72.9659C88.7817 72.6667 89.1984 72.4583 89.6491 72.3409C90.1037 72.2197 90.5507 72.1591 90.9901 72.1591C91.2704 72.1591 91.5923 72.1932 91.956 72.2614C92.3234 72.3258 92.6776 72.4602 93.0185 72.6648C93.3632 72.8693 93.6491 73.178 93.8764 73.5909C94.1037 74.0038 94.2173 74.5568 94.2173 75.25V81H92.8764V79.8182H92.8082C92.7173 80.0076 92.5658 80.2102 92.3537 80.4261C92.1416 80.642 91.8594 80.8258 91.5071 80.9773C91.1548 81.1288 90.7249 81.2045 90.2173 81.2045ZM90.4219 80C90.9522 80 91.3991 79.8958 91.7628 79.6875C92.1302 79.4792 92.4067 79.2102 92.5923 78.8807C92.7817 78.5511 92.8764 78.2045 92.8764 77.8409V76.6136C92.8196 76.6818 92.6946 76.7443 92.5014 76.8011C92.312 76.8542 92.0923 76.9015 91.8423 76.9432C91.5961 76.9811 91.3556 77.0152 91.1207 77.0455C90.8897 77.072 90.7022 77.0947 90.5582 77.1136C90.2098 77.1591 89.884 77.233 89.581 77.3352C89.2817 77.4337 89.0393 77.5833 88.8537 77.7841C88.6719 77.9811 88.581 78.25 88.581 78.5909C88.581 79.0568 88.7533 79.4091 89.098 79.6477C89.4465 79.8826 89.8878 80 90.4219 80Z" fill="#96E6A1"/>
<defs>
<linearGradient id="paint0_linear_189_430" x1="44.9575" y1="13.0219" x2="50.0408" y2="79.9785" gradientUnits="userSpaceOnUse">
<stop stop-color="#D4FC79"/>
<stop offset="1" stop-color="#96E6A1"/>
</linearGradient>
</defs>
</svg>
