<svg width="53" height="52" viewBox="0 0 53 52" fill="none" xmlns="http://www.w3.org/2000/svg">
<path d="M52.1222 18.3584C51.3727 15.9413 49.9856 13.2519 48.317 11.31C45.2239 7.7025 41.3607 4.93594 36.7232 3.70094C32.6944 2.6325 27.0673 1.93375 22.9888 2.80313C20.169 3.40438 17.1008 4.36313 14.5584 5.6875C14.0119 5.97188 13.4777 6.27656 12.9477 6.59344C5.28758 11.1719 0.505157 20.5238 0.091095 28.6366C-0.351952 37.3913 5.15508 45.7438 12.9809 48.2544C15.4735 49.0547 18.3305 49.4894 20.9516 49.5666C28.9637 49.8103 37.5016 47.9944 43.6505 42.6806C48.7807 38.2444 52.7226 31.8378 52.9213 24.9925C52.9834 22.8516 52.7598 20.4222 52.1222 18.3584Z" fill="#DB4437"/>
<path d="M32.9966 20.1906C32.6074 20.4222 32.2761 20.7147 31.8828 20.93C31.39 21.2022 30.8807 21.4013 30.3217 21.515C28.6779 21.8481 26.9927 21.6491 25.3364 21.4216C23.527 21.1778 22.0488 20.1541 20.3553 19.5731C20.111 19.4838 19.701 19.5853 19.4692 19.6625C18.2808 20.0363 17.4734 21.5272 16.5914 22.3275C15.5935 23.2375 14.4549 23.9688 13.1837 24.44C11.9539 24.8991 10.1569 25.5003 9.00995 24.5538C9.20042 24.0053 10.1776 23.6153 10.5875 23.205C11.0678 22.7175 11.4281 22.1528 11.7303 21.5516C12.3639 20.2881 12.6744 18.8947 13.2499 17.6191C13.4073 17.2656 14.1899 16.4572 13.6889 16.1159C13.4363 15.9413 12.9974 16.0266 12.7034 15.99C12.3017 15.9413 11.9042 15.8397 11.5233 15.7056C10.7532 15.4416 10.0037 15.0475 9.38674 14.5275C9.01823 14.2147 8.18596 13.4063 8.33917 12.8619C8.46339 12.415 9.09276 12.7319 9.41987 12.7684C9.86706 12.8172 10.2563 12.7684 10.6289 12.6791C11.2417 12.5288 11.7924 12.2444 12.4757 12.0534C13.6433 11.7284 14.7696 11.8219 15.9579 11.9478C16.9268 12.0494 17.726 11.9234 18.0986 10.9241C18.7363 9.20563 19.6969 7.1825 21.1585 6.00844C21.672 5.59813 22.3096 5.11469 22.9017 4.81813C23.1626 4.69219 23.7878 4.3225 24.0901 4.47688C24.4503 4.65563 23.941 6.42688 23.8831 6.71938C23.6843 7.71875 23.3696 8.58813 23.8251 9.555C24.1522 10.2334 24.4835 10.3147 25.146 9.88C27.6055 8.27531 30.8186 9.11625 33.332 7.67406C33.5556 7.54813 33.7502 7.30031 34.0028 7.26375C34.1642 7.54406 34.0069 7.99094 33.9614 8.29563C33.8289 9.25438 33.3692 10.2741 32.6736 10.9606C31.6509 11.9803 30.7234 12.5044 29.4481 13.1381C29.034 13.3453 26.8312 14.2147 27.0217 14.9013C27.1169 15.2425 27.3736 15.34 27.6759 15.4497C28.504 15.7666 29.1665 16.5506 29.7131 17.2372C29.9367 17.5134 30.1354 17.7694 30.4253 17.9847C31.4563 18.7606 32.5618 18.8663 33.7253 19.3131C33.804 19.7072 33.274 20.0241 32.9966 20.1906Z" fill="#BDCF46"/>
<path d="M17.9787 13.3331C17.0304 14.2716 16.9435 15.4619 18.1774 16.1403C19.7922 17.03 23.759 15.2628 22.8273 13.1422C22.1358 11.57 18.9351 12.3825 17.9787 13.3331ZM7.44904 40.6981C8.04943 41.1612 9.02662 41.2587 9.54834 40.6412C10.128 39.9344 9.70568 38.5734 9.05147 38.0209C8.49662 37.5456 7.49873 37.7284 7.08053 38.2728C6.59193 38.9025 6.75756 39.9141 7.22959 40.4991C7.2917 40.5681 7.36209 40.6372 7.44904 40.6981ZM4.25248 28.08C4.12412 28.5553 4.04131 29.0428 3.98334 29.4775C3.70178 31.5006 4.08686 33.3775 5.08889 35.1569C5.44912 35.7947 6.2524 36.6275 7.07639 36.4244C7.92522 36.2131 8.16123 35.2219 8.31029 34.4906C8.53389 33.3531 8.62498 32.1953 8.62912 31.0375C8.63326 29.4531 8.79889 27.2472 7.33725 26.1706C6.63334 25.6547 5.84662 25.7359 5.20897 26.3087C4.72865 26.7516 4.43467 27.4056 4.25248 28.08Z" fill="white"/>
</svg>
